<svg width="1000" height="1000" viewBox="0 0 1000 1000" xmlns="http://www.w3.org/2000/svg"><defs/><path fill="#f37410" transform="matrix(0.45198855200576266 0 0 0.45198855200576266 58.69202608018281 -2.0090399202046134)" d="M 455.21390834928 1200.09890070773 C 476.11390834928 1177.99890070773 487.71390834928 1149.29890070773 487.71390834928 1118.79890070773 C 487.71390834928 1087.19890070773 475.41390834928 1057.49890070773 453.11390834928 1035.09890070773 C 407.71390834928 989.69890070773 334.41390834928 988.99890070773 288.11390834928 1032.89890070773 L 283.61390834928 1037.39890070773 C 262.71390834928 1059.49890070773 251.11390834928 1088.19890070773 251.11390834928 1118.69890070773 C 251.11390834928 1150.29890070773 263.41390834928 1179.99890070773 285.81390834928 1202.39890070773 C 308.91390834928 1225.49890070773 339.21390834928 1236.99890070773 369.51390834928 1236.99890070773 C 398.81390834928 1236.99890070773 428.11390834928 1226.19890070773 450.81390834928 1204.59890070773 L 455.21390834928 1200.09890070773 Z M 301.31390834928 1066.69890070773 L 335.41390834928 1100.79890070773 L 312.21390834928 1123.99890070773 C 303.71390834928 1106.29890070773 299.81390834928 1086.49890070773 301.31390834928 1066.69890070773 Z M 405.01390834928 1083.09890070773 C 411.41390834928 1089.49890070773 416.91390834928 1096.59890070773 421.51390834928 1104.19890070773 L 396.21390834928 1129.49890070773 L 367.51390834928 1100.79890070773 L 394.51390834928 1073.79890070773 C 398.21390834928 1076.69890070773 401.71390834928 1079.79890070773 405.01390834928 1083.09890070773 Z M 437.51390834928 1170.79890070773 L 412.31390834928 1145.59890070773 L 431.81390834928 1126.09890070773 C 436.61390834928 1140.39890070773 438.61390834928 1155.59890070773 437.51390834928 1170.79890070773 Z M 351.51390834928 1084.79890070773 L 317.31390834928 1050.69890070773 C 337.11390834928 1049.19890070773 356.91390834928 1053.09890070773 374.61390834928 1061.59890070773 L 351.51390834928 1084.79890070773 Z M 351.51390834928 1116.89890070773 L 380.21390834928 1145.59890070773 L 354.91390834928 1170.99890070773 C 347.31390834928 1166.39890070773 340.21390834928 1160.89890070773 333.81390834928 1154.49890070773 C 330.51390834928 1151.19890070773 327.41390834928 1147.69890070773 324.51390834928 1143.99890070773 L 351.51390834928 1116.89890070773 Z M 396.31390834928 1161.69890070773 L 421.51390834928 1186.89890070773 C 406.31390834928 1187.99890070773 391.11390834928 1185.99890070773 376.81390834928 1181.19890070773 L 396.31390834928 1161.69890070773 Z M 459.91390834928 1149.59890070773 C 458.51390834928 1135.49890070773 455.01390834928 1121.59890070773 449.31390834928 1108.59890070773 L 462.21390834928 1095.69890070773 C 464.01390834928 1103.09890070773 465.01390834928 1110.89890070773 465.01390834928 1118.69890070773 C 465.01390834928 1129.39890070773 463.21390834928 1139.79890070773 459.91390834928 1149.59890070773 Z M 453.21390834928 1072.69890070773 L 438.11390834928 1087.79890070773 C 433.21390834928 1080.39890070773 427.51390834928 1073.49890070773 421.21390834928 1067.09890070773 C 417.91390834928 1063.79890070773 414.41390834928 1060.69890070773 410.81390834928 1057.69890070773 L 426.51390834928 1041.99890070773 C 430.21390834928 1044.79890070773 433.81390834928 1047.79890070773 437.11390834928 1051.19890070773 C 443.51390834928 1057.59890070773 448.91390834928 1064.89890070773 453.21390834928 1072.69890070773 Z M 405.81390834928 1030.39890070773 L 391.51390834928 1044.69890070773 C 375.21390834928 1035.59890070773 357.21390834928 1029.99890070773 338.71390834928 1028.19890070773 C 348.61390834928 1024.79890070773 359.01390834928 1023.09890070773 369.41390834928 1023.09890070773 C 381.81390834928 1023.19890070773 394.21390834928 1025.59890070773 405.81390834928 1030.39890070773 Z M 278.91390834928 1087.89890070773 C 280.71390834928 1106.49890070773 286.31390834928 1124.49890070773 295.41390834928 1140.79890070773 L 281.01390834928 1155.19890070773 C 276.31390834928 1143.79890070773 273.81390834928 1131.39890070773 273.81390834928 1118.69890070773 C 273.81390834928 1108.09890070773 275.61390834928 1097.69890070773 278.91390834928 1087.89890070773 Z M 292.61390834928 1175.79890070773 L 308.31390834928 1160.09890070773 C 311.21390834928 1163.69890070773 314.31390834928 1167.19890070773 317.71390834928 1170.49890070773 C 324.11390834928 1176.89890070773 331.01390834928 1182.49890070773 338.41390834928 1187.39890070773 L 323.31390834928 1202.49890070773 C 315.61390834928 1198.29890070773 308.31390834928 1192.89890070773 301.81390834928 1186.39890070773 C 298.51390834928 1182.99890070773 295.41390834928 1179.49890070773 292.61390834928 1175.79890070773 Z M 346.41390834928 1211.49890070773 L 359.31390834928 1198.59890070773 C 372.31390834928 1204.19890070773 386.01390834928 1207.79890070773 400.11390834928 1209.19890070773 C 390.21390834928 1212.59890070773 379.81390834928 1214.29890070773 369.41390834928 1214.19890070773 C 361.71390834928 1214.29890070773 354.01390834928 1213.39890070773 346.41390834928 1211.49890070773 Z"/><path fill="#112537" transform="matrix(0.45198855200576266 0 0 0.45198855200576266 58.69202608018281 -2.0090399202046134)" d="M 376.81390834928 1285.89890070773 C 418.71390834928 1284.09890070773 457.81390834928 1266.89890070773 487.71390834928 1237.09890070773 L 471.61390834928 1220.99890070773 C 444.31390834928 1248.29890070773 408.01390834928 1263.29890070773 369.41390834928 1263.29890070773 C 289.71390834928 1263.29890070773 224.81390834928 1198.39890070773 224.81390834928 1118.69890070773 C 224.81390834928 1080.09890070773 239.81390834928 1043.79890070773 267.11390834928 1016.49890070773 L 251.01390834928 1000.39890070773 C 219.41390834928 1031.99890070773 202.01390834928 1073.99890070773 202.01390834928 1118.69890070773 C 202.01390834928 1205.79890070773 268.91390834928 1277.49890070773 354.01390834928 1285.29890070773 L 354.01390834928 1330.89890070773 L 314.91390834928 1330.89890070773 L 314.91390834928 1353.69890070773 L 413.31390834928 1353.69890070773 L 413.31390834928 1330.99890070773 L 376.81390834928 1330.99890070773 L 376.81390834928 1285.89890070773 Z"/><path fill="#112537" transform="matrix(0.45198855200576266 0 0 0.45198855200576266 58.69202608018281 -2.0090399202046134)" d="M 374.71390834928 985.89890070773 L 374.71390834928 985.89890070773 L 358.71390834928 916.39890070773 L 387.81390834928 887.29890070773 C 392.21390834928 882.89890070773 392.51390834928 875.59890070773 388.21390834928 871.09890070773 C 383.81390834928 866.49890070773 376.51390834928 866.49890070773 372.01390834928 870.99890070773 L 342.61390834928 900.39890070773 L 273.11390834928 884.39890070773 L 273.11390834928 884.39890070773 C 267.81390834928 889.69890070773 269.21390834928 898.59890070773 275.81390834928 902.09890070773 L 318.51390834928 924.49890070773 L 289.11390834928 953.89890070773 L 270.41390834928 951.19890070773 L 262.41390834928 959.19890070773 L 286.51390834928 972.59890070773 L 299.91390834928 996.69890070773 L 307.91390834928 988.69890070773 L 305.21390834928 969.99890070773 L 334.61390834928 940.59890070773 L 357.01390834928 983.29890070773 C 360.51390834928 989.89890070773 369.41390834928 991.19890070773 374.71390834928 985.89890070773 Z"/><path id="text" fill="#112537" transform="matrix(0.8802718695906223 0 0 0.8802718695906223 259.1624509671429 54.34307052294274)" d="M 71.1029436941 477.79991992891 L 92.6069436941 477.79991992891 L 92.6069436941 490.47191992891 L 54.6869436941 490.47191992891 L 54.6869436941 423.07991992891 L 71.1029436941 423.07991992891 L 71.1029436941 477.79991992891 Z M 110.7029436941 487.87991992891 C 106.5109436941 485.63991992891 103.2149436941 482.43991992891 100.8149436941 478.27991992891 C 98.4149436941 474.11991992891 97.2149436941 469.25591992891 97.2149436941 463.68791992891 C 97.2149436941 458.18391992891 98.4309436941 453.33591992891 100.8629436941 449.14391992891 C 103.2949436941 444.95191992891 106.6229436941 441.73591992891 110.8469436941 439.49591992891 C 115.0709436941 437.25591992891 119.8069436941 436.13591992891 125.0549436941 436.13591992891 C 130.3029436941 436.13591992891 135.0389436941 437.25591992891 139.2629436941 439.49591992891 C 143.4869436941 441.73591992891 146.8149436941 444.95191992891 149.2469436941 449.14391992891 C 151.6789436941 453.33591992891 152.8949436941 458.18391992891 152.8949436941 463.68791992891 C 152.8949436941 469.19191992891 151.6629436941 474.03991992891 149.1989436941 478.23191992891 C 146.7349436941 482.42391992891 143.3749436941 485.63991992891 139.1189436941 487.87991992891 C 134.8629436941 490.11991992891 130.1109436941 491.23991992891 124.8629436941 491.23991992891 C 119.6149436941 491.23991992891 114.8949436941 490.11991992891 110.7029436941 487.87991992891 Z M 132.8789436941 473.57591992891 C 135.0869436941 471.27191992891 136.1909436941 467.97591992891 136.1909436941 463.68791992891 C 136.1909436941 459.39991992891 135.1189436941 456.10391992891 132.9749436941 453.79991992891 C 130.8309436941 451.49591992891 128.1909436941 450.34391992891 125.0549436941 450.34391992891 C 121.8549436941 450.34391992891 119.1989436941 451.47991992891 117.0869436941 453.75191992891 C 114.9749436941 456.02391992891 113.9189436941 459.33591992891 113.9189436941 463.68791992891 C 113.9189436941 467.97591992891 114.9589436941 471.27191992891 117.0389436941 473.57591992891 C 119.1189436941 475.87991992891 121.7269436941 477.03191992891 124.8629436941 477.03191992891 C 127.9989436941 477.03191992891 130.6709436941 475.87991992891 132.8789436941 473.57591992891 Z M 161.7749436941 449.09591992891 C 164.0469436941 444.93591992891 167.2149436941 441.73591992891 171.2789436941 439.49591992891 C 175.3429436941 437.25591992891 179.9989436941 436.13591992891 185.2469436941 436.13591992891 C 191.9669436941 436.13591992891 197.5829436941 437.89591992891 202.0949436941 441.41591992891 C 206.6069436941 444.93591992891 209.5669436941 449.89591992891 210.9749436941 456.29591992891 L 193.5029436941 456.29591992891 C 192.0309436941 452.19991992891 189.1829436941 450.15191992891 184.9589436941 450.15191992891 C 181.9509436941 450.15191992891 179.5509436941 451.31991992891 177.7589436941 453.65591992891 C 175.9669436941 455.99191992891 175.0709436941 459.33591992891 175.0709436941 463.68791992891 C 175.0709436941 468.03991992891 175.9669436941 471.38391992891 177.7589436941 473.71991992891 C 179.5509436941 476.05591992891 181.9509436941 477.22391992891 184.9589436941 477.22391992891 C 189.1829436941 477.22391992891 192.0309436941 475.17591992891 193.5029436941 471.07991992891 L 210.9749436941 471.07991992891 C 209.5669436941 477.35191992891 206.5909436941 482.27991992891 202.0469436941 485.86391992891 C 197.5029436941 489.44791992891 191.9029436941 491.23991992891 185.2469436941 491.23991992891 C 179.9989436941 491.23991992891 175.3429436941 490.11991992891 171.2789436941 487.87991992891 C 167.2149436941 485.63991992891 164.0469436941 482.43991992891 161.7749436941 478.27991992891 C 159.5029436941 474.11991992891 158.3669436941 469.25591992891 158.3669436941 463.68791992891 C 158.3669436941 458.11991992891 159.5029436941 453.25591992891 161.7749436941 449.09591992891 Z M 219.5669436941 449.09591992891 C 221.6469436941 444.93591992891 224.4789436941 441.73591992891 228.0629436941 439.49591992891 C 231.6469436941 437.25591992891 235.6469436941 436.13591992891 240.0629436941 436.13591992891 C 243.8389436941 436.13591992891 247.1509436941 436.90391992891 249.9989436941 438.43991992891 C 252.8469436941 439.97591992891 255.0389436941 441.99191992891 256.5749436941 444.48791992891 L 256.5749436941 436.90391992891 L 272.9909436941 436.90391992891 L 272.9909436941 490.47191992891 L 256.5749436941 490.47191992891 L 256.5749436941 482.88791992891 C 254.9749436941 485.38391992891 252.7509436941 487.39991992891 249.9029436941 488.93591992891 C 247.0549436941 490.47191992891 243.7429436941 491.23991992891 239.9669436941 491.23991992891 C 235.6149436941 491.23991992891 231.6469436941 490.10391992891 228.0629436941 487.83191992891 C 224.4789436941 485.55991992891 221.6469436941 482.32791992891 219.5669436941 478.13591992891 C 217.4869436941 473.94391992891 216.4469436941 469.09591992891 216.4469436941 463.59191992891 C 216.4469436941 458.08791992891 217.4869436941 453.25591992891 219.5669436941 449.09591992891 Z M 253.1669436941 453.99191992891 C 250.8949436941 451.62391992891 248.1269436941 450.43991992891 244.8629436941 450.43991992891 C 241.5989436941 450.43991992891 238.8309436941 451.60791992891 236.5589436941 453.94391992891 C 234.2869436941 456.27991992891 233.1509436941 459.49591992891 233.1509436941 463.59191992891 C 233.1509436941 467.68791992891 234.2869436941 470.93591992891 236.5589436941 473.33591992891 C 238.8309436941 475.73591992891 241.5989436941 476.93591992891 244.8629436941 476.93591992891 C 248.1269436941 476.93591992891 250.8949436941 475.75191992891 253.1669436941 473.38391992891 C 255.4389436941 471.01591992891 256.5749436941 467.78391992891 256.5749436941 463.68791992891 C 256.5749436941 459.59191992891 255.4389436941 456.35991992891 253.1669436941 453.99191992891 Z M 345.1829436941 490.47191992891 L 328.7669436941 490.47191992891 L 301.3109436941 448.90391992891 L 301.3109436941 490.47191992891 L 284.8949436941 490.47191992891 L 284.8949436941 423.07991992891 L 301.3109436941 423.07991992891 L 328.7669436941 464.83991992891 L 328.7669436941 423.07991992891 L 345.1829436941 423.07991992891 L 345.1829436941 490.47191992891 Z M 356.9429436941 449.09591992891 C 359.0229436941 444.93591992891 361.8549436941 441.73591992891 365.4389436941 439.49591992891 C 369.0229436941 437.25591992891 373.0229436941 436.13591992891 377.4389436941 436.13591992891 C 381.2149436941 436.13591992891 384.5269436941 436.90391992891 387.3749436941 438.43991992891 C 390.2229436941 439.97591992891 392.4149436941 441.99191992891 393.9509436941 444.48791992891 L 393.9509436941 436.90391992891 L 410.3669436941 436.90391992891 L 410.3669436941 490.47191992891 L 393.9509436941 490.47191992891 L 393.9509436941 482.88791992891 C 392.3509436941 485.38391992891 390.1269436941 487.39991992891 387.2789436941 488.93591992891 C 384.4309436941 490.47191992891 381.1189436941 491.23991992891 377.3429436941 491.23991992891 C 372.9909436941 491.23991992891 369.0229436941 490.10391992891 365.4389436941 487.83191992891 C 361.8549436941 485.55991992891 359.0229436941 482.32791992891 356.9429436941 478.13591992891 C 354.8629436941 473.94391992891 353.8229436941 469.09591992891 353.8229436941 463.59191992891 C 353.8229436941 458.08791992891 354.8629436941 453.25591992891 356.9429436941 449.09591992891 Z M 390.5429436941 453.99191992891 C 388.2709436941 451.62391992891 385.5029436941 450.43991992891 382.2389436941 450.43991992891 C 378.9749436941 450.43991992891 376.2069436941 451.60791992891 373.9349436941 453.94391992891 C 371.6629436941 456.27991992891 370.5269436941 459.49591992891 370.5269436941 463.59191992891 C 370.5269436941 467.68791992891 371.6629436941 470.93591992891 373.9349436941 473.33591992891 C 376.2069436941 475.73591992891 378.9749436941 476.93591992891 382.2389436941 476.93591992891 C 385.5029436941 476.93591992891 388.2709436941 475.75191992891 390.5429436941 473.38391992891 C 392.8149436941 471.01591992891 393.9509436941 467.78391992891 393.9509436941 463.68791992891 C 393.9509436941 459.59191992891 392.8149436941 456.35991992891 390.5429436941 453.99191992891 Z M 446.3669436941 475.11191992891 L 457.9829436941 436.90391992891 L 475.4549436941 436.90391992891 L 456.4469436941 490.47191992891 L 436.1909436941 490.47191992891 L 417.1829436941 436.90391992891 L 434.7509436941 436.90391992891 L 446.3669436941 475.11191992891 Z"/><path id="text" fill="#112537" transform="matrix(0.44013593479531116 0 0 0.44013593479531116 263.59902118987964 141.18717208927518)" d="M 151.7098873882 914.03183985782 L 129.9178873882 955.69583985782 L 129.9178873882 980.94383985782 L 121.1818873882 980.94383985782 L 121.1818873882 955.69583985782 L 99.2938873882 914.03183985782 L 108.9898873882 914.03183985782 L 125.5018873882 947.91983985782 L 142.0138873882 914.03183985782 L 151.7098873882 914.03183985782 Z M 183.8698873882 977.24783985782 C 178.7498873882 974.33583985782 174.7018873882 970.27183985782 171.7258873882 965.05583985782 C 168.7498873882 959.83983985782 167.2618873882 953.96783985782 167.2618873882 947.43983985782 C 167.2618873882 940.91183985782 168.7498873882 935.03983985782 171.7258873882 929.82383985782 C 174.7018873882 924.60783985782 178.7498873882 920.54383985782 183.8698873882 917.63183985782 C 188.9898873882 914.71983985782 194.6538873882 913.26383985782 200.8618873882 913.26383985782 C 207.1338873882 913.26383985782 212.8298873882 914.71983985782 217.9498873882 917.63183985782 C 223.0698873882 920.54383985782 227.1018873882 924.59183985782 230.0458873882 929.77583985782 C 232.9898873882 934.95983985782 234.4618873882 940.84783985782 234.4618873882 947.43983985782 C 234.4618873882 954.03183985782 232.9898873882 959.91983985782 230.0458873882 965.10383985782 C 227.1018873882 970.28783985782 223.0698873882 974.33583985782 217.9498873882 977.24783985782 C 212.8298873882 980.15983985782 207.1338873882 981.61583985782 200.8618873882 981.61583985782 C 194.6538873882 981.61583985782 188.9898873882 980.15983985782 183.8698873882 977.24783985782 Z M 213.4858873882 970.76783985782 C 217.2298873882 968.59183985782 220.1738873882 965.48783985782 222.3178873882 961.45583985782 C 224.4618873882 957.42383985782 225.5338873882 952.75183985782 225.5338873882 947.43983985782 C 225.5338873882 942.06383985782 224.4618873882 937.37583985782 222.3178873882 933.37583985782 C 220.1738873882 929.37583985782 217.2458873882 926.28783985782 213.5338873882 924.11183985782 C 209.8218873882 921.93583985782 205.5978873882 920.84783985782 200.8618873882 920.84783985782 C 196.1258873882 920.84783985782 191.9018873882 921.93583985782 188.1898873882 924.11183985782 C 184.4778873882 926.28783985782 181.5498873882 929.37583985782 179.4058873882 933.37583985782 C 177.2618873882 937.37583985782 176.1898873882 942.06383985782 176.1898873882 947.43983985782 C 176.1898873882 952.75183985782 177.2618873882 957.42383985782 179.4058873882 961.45583985782 C 181.5498873882 965.48783985782 184.4938873882 968.59183985782 188.2378873882 970.76783985782 C 191.9818873882 972.94383985782 196.1898873882 974.03183985782 200.8618873882 974.03183985782 C 205.5338873882 974.03183985782 209.7418873882 972.94383985782 213.4858873882 970.76783985782 Z M 264.1258873882 914.03183985782 L 264.1258873882 956.36783985782 C 264.1258873882 962.31983985782 265.5818873882 966.73583985782 268.4938873882 969.61583985782 C 271.4058873882 972.49583985782 275.4538873882 973.93583985782 280.6378873882 973.93583985782 C 285.7578873882 973.93583985782 289.7738873882 972.49583985782 292.6858873882 969.61583985782 C 295.5978873882 966.73583985782 297.0538873882 962.31983985782 297.0538873882 956.36783985782 L 297.0538873882 914.03183985782 L 305.7898873882 914.03183985782 L 305.7898873882 956.27183985782 C 305.7898873882 961.83983985782 304.6698873882 966.52783985782 302.4298873882 970.33583985782 C 300.1898873882 974.14383985782 297.1658873882 976.97583985782 293.3578873882 978.83183985782 C 289.5498873882 980.68783985782 285.2778873882 981.61583985782 280.5418873882 981.61583985782 C 275.8058873882 981.61583985782 271.5338873882 980.68783985782 267.7258873882 978.83183985782 C 263.9178873882 976.97583985782 260.9098873882 974.14383985782 258.7018873882 970.33583985782 C 256.4938873882 966.52783985782 255.3898873882 961.83983985782 255.3898873882 956.27183985782 L 255.3898873882 914.03183985782 L 264.1258873882 914.03183985782 Z M 365.2138873882 980.94383985782 L 349.2778873882 953.58383985782 L 338.7178873882 953.58383985782 L 338.7178873882 980.94383985782 L 329.9818873882 980.94383985782 L 329.9818873882 914.03183985782 L 351.5818873882 914.03183985782 C 356.6378873882 914.03183985782 360.9098873882 914.89583985782 364.3978873882 916.62383985782 C 367.8858873882 918.35183985782 370.4938873882 920.68783985782 372.2218873882 923.63183985782 C 373.9498873882 926.57583985782 374.8138873882 929.93583985782 374.8138873882 933.71183985782 C 374.8138873882 938.31983985782 373.4858873882 942.38383985782 370.8298873882 945.90383985782 C 368.1738873882 949.42383985782 364.1898873882 951.75983985782 358.8778873882 952.91183985782 L 375.6778873882 980.94383985782 L 365.2138873882 980.94383985782 Z M 338.7178873882 946.57583985782 L 351.5818873882 946.57583985782 C 356.3178873882 946.57583985782 359.8698873882 945.40783985782 362.2378873882 943.07183985782 C 364.6058873882 940.73583985782 365.7898873882 937.61583985782 365.7898873882 933.71183985782 C 365.7898873882 929.74383985782 364.6218873882 926.67183985782 362.2858873882 924.49583985782 C 359.9498873882 922.31983985782 356.3818873882 921.23183985782 351.5818873882 921.23183985782 L 338.7178873882 921.23183985782 L 338.7178873882 946.57583985782 Z M 483.8698873882 933.42383985782 C 482.0138873882 929.51983985782 479.3258873882 926.49583985782 475.8058873882 924.35183985782 C 472.2858873882 922.20783985782 468.1898873882 921.13583985782 463.5178873882 921.13583985782 C 458.8458873882 921.13583985782 454.6378873882 922.20783985782 450.8938873882 924.35183985782 C 447.1498873882 926.49583985782 444.2058873882 929.56783985782 442.0618873882 933.56783985782 C 439.9178873882 937.56783985782 438.8458873882 942.19183985782 438.8458873882 947.43983985782 C 438.8458873882 952.68783985782 439.9178873882 957.29583985782 442.0618873882 961.26383985782 C 444.2058873882 965.23183985782 447.1498873882 968.28783985782 450.8938873882 970.43183985782 C 454.6378873882 972.57583985782 458.8458873882 973.64783985782 463.5178873882 973.64783985782 C 470.0458873882 973.64783985782 475.4218873882 971.69583985782 479.6458873882 967.79183985782 C 483.8698873882 963.88783985782 486.3338873882 958.60783985782 487.0378873882 951.95183985782 L 460.3498873882 951.95183985782 L 460.3498873882 944.84783985782 L 496.3498873882 944.84783985782 L 496.3498873882 951.56783985782 C 495.8378873882 957.07183985782 494.1098873882 962.11183985782 491.1658873882 966.68783985782 C 488.2218873882 971.26383985782 484.3498873882 974.87983985782 479.5498873882 977.53583985782 C 474.7498873882 980.19183985782 469.4058873882 981.51983985782 463.5178873882 981.51983985782 C 457.3098873882 981.51983985782 451.6458873882 980.06383985782 446.5258873882 977.15183985782 C 441.4058873882 974.23983985782 437.3578873882 970.19183985782 434.3818873882 965.00783985782 C 431.4058873882 959.82383985782 429.9178873882 953.96783985782 429.9178873882 947.43983985782 C 429.9178873882 940.91183985782 431.4058873882 935.03983985782 434.3818873882 929.82383985782 C 437.3578873882 924.60783985782 441.4058873882 920.54383985782 446.5258873882 917.63183985782 C 451.6458873882 914.71983985782 457.3098873882 913.26383985782 463.5178873882 913.26383985782 C 470.6218873882 913.26383985782 476.9098873882 915.02383985782 482.3818873882 918.54383985782 C 487.8538873882 922.06383985782 491.8378873882 927.02383985782 494.3338873882 933.42383985782 L 483.8698873882 933.42383985782 Z M 556.4938873882 947.48783985782 C 552.6858873882 951.16783985782 546.8778873882 953.00783985782 539.0698873882 953.00783985782 L 526.2058873882 953.00783985782 L 526.2058873882 980.94383985782 L 517.4698873882 980.94383985782 L 517.4698873882 914.03183985782 L 539.0698873882 914.03183985782 C 546.6218873882 914.03183985782 552.3658873882 915.85583985782 556.3018873882 919.50383985782 C 560.2378873882 923.15183985782 562.2058873882 927.85583985782 562.2058873882 933.61583985782 C 562.2058873882 939.18383985782 560.3018873882 943.80783985782 556.4938873882 947.48783985782 Z M 549.8218873882 942.63983985782 C 552.1258873882 940.52783985782 553.2778873882 937.51983985782 553.2778873882 933.61583985782 C 553.2778873882 925.35983985782 548.5418873882 921.23183985782 539.0698873882 921.23183985782 L 526.2058873882 921.23183985782 L 526.2058873882 945.80783985782 L 539.0698873882 945.80783985782 C 543.9338873882 945.80783985782 547.5178873882 944.75183985782 549.8218873882 942.63983985782 Z M 592.0138873882 979.26383985782 C 588.5258873882 977.69583985782 585.7898873882 975.51983985782 583.8058873882 972.73583985782 C 581.8218873882 969.95183985782 580.7978873882 966.73583985782 580.7338873882 963.08783985782 L 590.0458873882 963.08783985782 C 590.3658873882 966.22383985782 591.6618873882 968.86383985782 593.9338873882 971.00783985782 C 596.2058873882 973.15183985782 599.5178873882 974.22383985782 603.8698873882 974.22383985782 C 608.0298873882 974.22383985782 611.3098873882 973.18383985782 613.7098873882 971.10383985782 C 616.1098873882 969.02383985782 617.3098873882 966.35183985782 617.3098873882 963.08783985782 C 617.3098873882 960.52783985782 616.6058873882 958.44783985782 615.1978873882 956.84783985782 C 613.7898873882 955.24783985782 612.0298873882 954.03183985782 609.9178873882 953.19983985782 C 607.8058873882 952.36783985782 604.9578873882 951.47183985782 601.3738873882 950.51183985782 C 596.9578873882 949.35983985782 593.4218873882 948.20783985782 590.7658873882 947.05583985782 C 588.1098873882 945.90383985782 585.8378873882 944.09583985782 583.9498873882 941.63183985782 C 582.0618873882 939.16783985782 581.1178873882 935.85583985782 581.1178873882 931.69583985782 C 581.1178873882 928.04783985782 582.0458873882 924.81583985782 583.9018873882 921.99983985782 C 585.7578873882 919.18383985782 588.3658873882 917.00783985782 591.7258873882 915.47183985782 C 595.0858873882 913.93583985782 598.9418873882 913.16783985782 603.2938873882 913.16783985782 C 609.5658873882 913.16783985782 614.7018873882 914.73583985782 618.7018873882 917.87183985782 C 622.7018873882 921.00783985782 624.9578873882 925.16783985782 625.4698873882 930.35183985782 L 615.8698873882 930.35183985782 C 615.5498873882 927.79183985782 614.2058873882 925.53583985782 611.8378873882 923.58383985782 C 609.4698873882 921.63183985782 606.3338873882 920.65583985782 602.4298873882 920.65583985782 C 598.7818873882 920.65583985782 595.8058873882 921.59983985782 593.5018873882 923.48783985782 C 591.1978873882 925.37583985782 590.0458873882 928.01583985782 590.0458873882 931.40783985782 C 590.0458873882 933.83983985782 590.7338873882 935.82383985782 592.1098873882 937.35983985782 C 593.4858873882 938.89583985782 595.1818873882 940.06383985782 597.1978873882 940.86383985782 C 599.2138873882 941.66383985782 602.0458873882 942.57583985782 605.6938873882 943.59983985782 C 610.1098873882 944.81583985782 613.6618873882 946.01583985782 616.3498873882 947.19983985782 C 619.0378873882 948.38383985782 621.3418873882 950.20783985782 623.2618873882 952.67183985782 C 625.1818873882 955.13583985782 626.1418873882 958.47983985782 626.1418873882 962.70383985782 C 626.1418873882 965.96783985782 625.2778873882 969.03983985782 623.5498873882 971.91983985782 C 621.8218873882 974.79983985782 619.2618873882 977.13583985782 615.8698873882 978.92783985782 C 612.4778873882 980.71983985782 608.4778873882 981.61583985782 603.8698873882 981.61583985782 C 599.4538873882 981.61583985782 595.5018873882 980.83183985782 592.0138873882 979.26383985782 Z M 684.9898873882 929.82383985782 C 687.9338873882 924.60783985782 691.9498873882 920.52783985782 697.0378873882 917.58383985782 C 702.1258873882 914.63983985782 707.7738873882 913.16783985782 713.9818873882 913.16783985782 C 721.2778873882 913.16783985782 727.6458873882 914.92783985782 733.0858873882 918.44783985782 C 738.5258873882 921.96783985782 742.4938873882 926.95983985782 744.9898873882 933.42383985782 L 734.5258873882 933.42383985782 C 732.6698873882 929.39183985782 729.9978873882 926.28783985782 726.5098873882 924.11183985782 C 723.0218873882 921.93583985782 718.8458873882 920.84783985782 713.9818873882 920.84783985782 C 709.3098873882 920.84783985782 705.1178873882 921.93583985782 701.4058873882 924.11183985782 C 697.6938873882 926.28783985782 694.7818873882 929.37583985782 692.6698873882 933.37583985782 C 690.5578873882 937.37583985782 689.5018873882 942.06383985782 689.5018873882 947.43983985782 C 689.5018873882 952.75183985782 690.5578873882 957.40783985782 692.6698873882 961.40783985782 C 694.7818873882 965.40783985782 697.6938873882 968.49583985782 701.4058873882 970.67183985782 C 705.1178873882 972.84783985782 709.3098873882 973.93583985782 713.9818873882 973.93583985782 C 718.8458873882 973.93583985782 723.0218873882 972.86383985782 726.5098873882 970.71983985782 C 729.9978873882 968.57583985782 732.6698873882 965.48783985782 734.5258873882 961.45583985782 L 744.9898873882 961.45583985782 C 742.4938873882 967.85583985782 738.5258873882 972.79983985782 733.0858873882 976.28783985782 C 727.6458873882 979.77583985782 721.2778873882 981.51983985782 713.9818873882 981.51983985782 C 707.7738873882 981.51983985782 702.1258873882 980.06383985782 697.0378873882 977.15183985782 C 691.9498873882 974.23983985782 687.9338873882 970.19183985782 684.9898873882 965.00783985782 C 682.0458873882 959.82383985782 680.5738873882 953.96783985782 680.5738873882 947.43983985782 C 680.5738873882 940.91183985782 682.0458873882 935.03983985782 684.9898873882 929.82383985782 Z M 780.8938873882 977.24783985782 C 775.7738873882 974.33583985782 771.7258873882 970.27183985782 768.7498873882 965.05583985782 C 765.7738873882 959.83983985782 764.2858873882 953.96783985782 764.2858873882 947.43983985782 C 764.2858873882 940.91183985782 765.7738873882 935.03983985782 768.7498873882 929.82383985782 C 771.7258873882 924.60783985782 775.7738873882 920.54383985782 780.8938873882 917.63183985782 C 786.0138873882 914.71983985782 791.6778873882 913.26383985782 797.8858873882 913.26383985782 C 804.1578873882 913.26383985782 809.8538873882 914.71983985782 814.9738873882 917.63183985782 C 820.0938873882 920.54383985782 824.1258873882 924.59183985782 827.0698873882 929.77583985782 C 830.0138873882 934.95983985782 831.4858873882 940.84783985782 831.4858873882 947.43983985782 C 831.4858873882 954.03183985782 830.0138873882 959.91983985782 827.0698873882 965.10383985782 C 824.1258873882 970.28783985782 820.0938873882 974.33583985782 814.9738873882 977.24783985782 C 809.8538873882 980.15983985782 804.1578873882 981.61583985782 797.8858873882 981.61583985782 C 791.6778873882 981.61583985782 786.0138873882 980.15983985782 780.8938873882 977.24783985782 Z M 810.5098873882 970.76783985782 C 814.2538873882 968.59183985782 817.1978873882 965.48783985782 819.3418873882 961.45583985782 C 821.4858873882 957.42383985782 822.5578873882 952.75183985782 822.5578873882 947.43983985782 C 822.5578873882 942.06383985782 821.4858873882 937.37583985782 819.3418873882 933.37583985782 C 817.1978873882 929.37583985782 814.2698873882 926.28783985782 810.5578873882 924.11183985782 C 806.8458873882 921.93583985782 802.6218873882 920.84783985782 797.8858873882 920.84783985782 C 793.1498873882 920.84783985782 788.9258873882 921.93583985782 785.2138873882 924.11183985782 C 781.5018873882 926.28783985782 778.5738873882 929.37583985782 776.4298873882 933.37583985782 C 774.2858873882 937.37583985782 773.2138873882 942.06383985782 773.2138873882 947.43983985782 C 773.2138873882 952.75183985782 774.2858873882 957.42383985782 776.4298873882 961.45583985782 C 778.5738873882 965.48783985782 781.5178873882 968.59183985782 785.2618873882 970.76783985782 C 789.0058873882 972.94383985782 793.2138873882 974.03183985782 797.8858873882 974.03183985782 C 802.5578873882 974.03183985782 806.7658873882 972.94383985782 810.5098873882 970.76783985782 Z M 920.4778873882 914.51183985782 L 920.4778873882 980.94383985782 L 911.7418873882 980.94383985782 L 911.7418873882 931.40783985782 L 889.6618873882 980.94383985782 L 883.5178873882 980.94383985782 L 861.3418873882 931.31183985782 L 861.3418873882 980.94383985782 L 852.6058873882 980.94383985782 L 852.6058873882 914.51183985782 L 862.0138873882 914.51183985782 L 886.5898873882 969.42383985782 L 911.1658873882 914.51183985782 L 920.4778873882 914.51183985782 Z M 983.8858873882 947.48783985782 C 980.0778873882 951.16783985782 974.2698873882 953.00783985782 966.4618873882 953.00783985782 L 953.5978873882 953.00783985782 L 953.5978873882 980.94383985782 L 944.8618873882 980.94383985782 L 944.8618873882 914.03183985782 L 966.4618873882 914.03183985782 C 974.0138873882 914.03183985782 979.7578873882 915.85583985782 983.6938873882 919.50383985782 C 987.6298873882 923.15183985782 989.5978873882 927.85583985782 989.5978873882 933.61583985782 C 989.5978873882 939.18383985782 987.6938873882 943.80783985782 983.8858873882 947.48783985782 Z M 977.2138873882 942.63983985782 C 979.5178873882 940.52783985782 980.6698873882 937.51983985782 980.6698873882 933.61583985782 C 980.6698873882 925.35983985782 975.9338873882 921.23183985782 966.4618873882 921.23183985782 L 953.5978873882 921.23183985782 L 953.5978873882 945.80783985782 L 966.4618873882 945.80783985782 C 971.3258873882 945.80783985782 974.9098873882 944.75183985782 977.2138873882 942.63983985782 Z M 1049.5978873882 966.06383985782 L 1020.4138873882 966.06383985782 L 1015.0378873882 980.94383985782 L 1005.8218873882 980.94383985782 L 1030.0138873882 914.41583985782 L 1040.0938873882 914.41583985782 L 1064.1898873882 980.94383985782 L 1054.9738873882 980.94383985782 L 1049.5978873882 966.06383985782 Z M 1047.1018873882 958.95983985782 L 1035.0058873882 925.16783985782 L 1022.9098873882 958.95983985782 L 1047.1018873882 958.95983985782 Z M 1136.9578873882 980.94383985782 L 1128.2218873882 980.94383985782 L 1093.0858873882 927.66383985782 L 1093.0858873882 980.94383985782 L 1084.3498873882 980.94383985782 L 1084.3498873882 913.93583985782 L 1093.0858873882 913.93583985782 L 1128.2218873882 967.11983985782 L 1128.2218873882 913.93583985782 L 1136.9578873882 913.93583985782 L 1136.9578873882 980.94383985782 Z M 1170.1738873882 914.03183985782 L 1170.1738873882 980.94383985782 L 1161.4378873882 980.94383985782 L 1161.4378873882 914.03183985782 L 1170.1738873882 914.03183985782 Z M 1207.9978873882 977.24783985782 C 1202.8778873882 974.33583985782 1198.8298873882 970.27183985782 1195.8538873882 965.05583985782 C 1192.8778873882 959.83983985782 1191.3898873882 953.96783985782 1191.3898873882 947.43983985782 C 1191.3898873882 940.91183985782 1192.8778873882 935.03983985782 1195.8538873882 929.82383985782 C 1198.8298873882 924.60783985782 1202.8778873882 920.54383985782 1207.9978873882 917.63183985782 C 1213.1178873882 914.71983985782 1218.7818873882 913.26383985782 1224.9898873882 913.26383985782 C 1231.2618873882 913.26383985782 1236.9578873882 914.71983985782 1242.0778873882 917.63183985782 C 1247.1978873882 920.54383985782 1251.2298873882 924.59183985782 1254.1738873882 929.77583985782 C 1257.1178873882 934.95983985782 1258.5898873882 940.84783985782 1258.5898873882 947.43983985782 C 1258.5898873882 954.03183985782 1257.1178873882 959.91983985782 1254.1738873882 965.10383985782 C 1251.2298873882 970.28783985782 1247.1978873882 974.33583985782 1242.0778873882 977.24783985782 C 1236.9578873882 980.15983985782 1231.2618873882 981.61583985782 1224.9898873882 981.61583985782 C 1218.7818873882 981.61583985782 1213.1178873882 980.15983985782 1207.9978873882 977.24783985782 Z M 1237.6138873882 970.76783985782 C 1241.3578873882 968.59183985782 1244.3018873882 965.48783985782 1246.4458873882 961.45583985782 C 1248.5898873882 957.42383985782 1249.6618873882 952.75183985782 1249.6618873882 947.43983985782 C 1249.6618873882 942.06383985782 1248.5898873882 937.37583985782 1246.4458873882 933.37583985782 C 1244.3018873882 929.37583985782 1241.3738873882 926.28783985782 1237.6618873882 924.11183985782 C 1233.9498873882 921.93583985782 1229.7258873882 920.84783985782 1224.9898873882 920.84783985782 C 1220.2538873882 920.84783985782 1216.0298873882 921.93583985782 1212.3178873882 924.11183985782 C 1208.6058873882 926.28783985782 1205.6778873882 929.37583985782 1203.5338873882 933.37583985782 C 1201.3898873882 937.37583985782 1200.3178873882 942.06383985782 1200.3178873882 947.43983985782 C 1200.3178873882 952.75183985782 1201.3898873882 957.42383985782 1203.5338873882 961.45583985782 C 1205.6778873882 965.48783985782 1208.6218873882 968.59183985782 1212.3658873882 970.76783985782 C 1216.1098873882 972.94383985782 1220.3178873882 974.03183985782 1224.9898873882 974.03183985782 C 1229.6618873882 974.03183985782 1233.8698873882 972.94383985782 1237.6138873882 970.76783985782 Z M 1332.3178873882 980.94383985782 L 1323.5818873882 980.94383985782 L 1288.4458873882 927.66383985782 L 1288.4458873882 980.94383985782 L 1279.7098873882 980.94383985782 L 1279.7098873882 913.93583985782 L 1288.4458873882 913.93583985782 L 1323.5818873882 967.11983985782 L 1323.5818873882 913.93583985782 L 1332.3178873882 913.93583985782 L 1332.3178873882 980.94383985782 Z"/></svg>